<svg width="40" height="42" viewBox="0 0 40 42" fill="none" xmlns="http://www.w3.org/2000/svg">
<path d="M31.4926 21.8873L36.3355 19.8282C36.7845 19.6366 36.993 19.1173 36.8014 18.6685C36.7253 18.4902 36.5926 18.3418 36.4239 18.2463L34.0201 16.8676L36.3797 15.869C36.8286 15.6774 37.0372 15.1581 36.8456 14.7093C36.7694 14.531 36.6368 14.3826 36.4681 14.2871L34.0201 12.9084L36.3797 11.9098C36.8286 11.7182 37.0372 11.1989 36.8456 10.7501C36.7694 10.5718 36.6368 10.4234 36.4681 10.3279L34.0201 8.94921L36.3797 7.95057C36.8286 7.75902 37.0372 7.23971 36.8456 6.79087C36.7694 6.61257 36.6368 6.46421 36.4681 6.36866L25.3063 0.111708C25.0702 -0.0197498 24.787 -0.0360992 24.5375 0.0675205L16.2744 3.45228C16.1744 3.45626 16.0758 3.47714 15.9827 3.51415L10.9365 5.63515L0.570148 9.88598C0.115349 10.0633 -0.109566 10.5756 0.0677366 11.0303C0.138989 11.2132 0.269121 11.3671 0.437586 11.4679L2.8679 12.8996L0.570148 13.854C0.117337 14.0362 -0.102164 14.5509 0.0799986 15.0037C0.150699 15.1795 0.276081 15.3279 0.437586 15.4271L2.8679 16.8588L0.552473 17.8132C0.0999934 17.9963 -0.118293 18.5115 0.0647538 18.964C0.137995 19.1449 0.269121 19.2965 0.437586 19.3951L2.8679 20.8268L0.570148 21.8078C0.123192 22.0037 -0.0804021 22.525 0.115569 22.972C0.183839 23.1278 0.295634 23.2605 0.437475 23.3543L3.14175 24.9451V37.3176C3.14175 40.2605 8.22331 41.8512 13.0044 41.8512C16.2301 41.8512 19.5795 41.1266 21.4265 39.7479C23.194 41.0382 26.3225 41.8512 29.8664 41.8512C34.6474 41.8512 39.729 40.2605 39.729 37.3176V26.3591C39.738 23.7432 35.7346 22.2055 31.4926 21.8873ZM27.4715 21.684V19.6426L31.9433 17.7425L34.0201 18.9091L27.4715 21.684ZM27.4715 17.7248V15.6834L31.9433 13.7833L34.0201 14.9499L27.4715 17.7248ZM27.4715 13.7656V11.7153L31.9433 9.81528L34.0201 10.9907L27.4715 13.7656ZM24.8203 1.86153L34.0201 7.02263L26.6408 10.1423L18.2628 4.54813L24.8203 1.86153ZM11.1221 7.47335L19.5973 13.1293L12.1473 16.2932L2.88557 10.8493L11.1221 7.47335ZM4.80331 14.0219L11.6347 18.043C11.8764 18.1861 12.1716 18.2057 12.4301 18.096L20.5694 14.6406V16.682L16.4158 18.4495C14.0191 18.0651 11.5744 18.092 9.18671 18.5291L2.88557 14.8085L4.80331 14.0219ZM20.5606 18.5998V19.7221C20.1413 19.5033 19.7072 19.3143 19.2615 19.1565L20.5606 18.5998ZM3.15954 22.6915V22.8771L2.88557 22.718L3.16837 22.6031L3.15954 22.6915ZM2.88557 18.7588L4.80331 17.9723L6.78291 19.1565C6.16407 19.3875 5.57151 19.6837 5.01541 20.0403L2.88557 18.7588ZM21.1085 37.3176C21.1085 38.4488 17.9535 40.0837 13.0134 40.0837C8.07319 40.0837 4.9182 38.4488 4.9182 37.3176V36.3278C6.81826 37.5562 9.97325 38.2013 13.0134 38.2013C16.0535 38.2013 19.1996 37.5562 21.1085 36.3278V37.3176ZM21.1085 33.6677C21.1085 34.7989 17.9535 36.4338 13.0134 36.4338C8.07319 36.4338 4.9182 34.7989 4.9182 33.6677V32.6779C6.81826 33.9063 9.97325 34.5514 13.0134 34.5514C16.0535 34.5514 19.1996 33.9063 21.1085 32.6779V33.6677ZM21.1085 30.0178C21.1085 31.149 17.9535 32.784 13.0134 32.784C8.07319 32.784 4.9182 31.149 4.9182 30.0178V29.028C6.81826 30.2564 9.97325 30.9016 13.0134 30.9016C16.0535 30.9016 19.1996 30.2564 21.1085 29.028V30.0178ZM21.1085 26.3679C21.1085 27.4991 17.9535 29.1341 13.0134 29.1341C8.07319 29.1341 4.9182 27.4903 4.9182 26.3679V25.3428C6.81826 26.5712 9.97325 27.2163 13.0134 27.2163C16.0535 27.2163 19.1996 26.5712 21.1085 25.3428V26.3679ZM13.0222 25.4753L13.0134 25.4842C8.07319 25.4842 4.9182 23.8404 4.9182 22.718C4.9182 21.5957 8.07319 19.9519 13.0134 19.9519C17.9535 19.9519 21.1173 21.578 21.1173 22.6915C21.1173 23.805 17.9624 25.4753 13.0222 25.4753ZM21.9392 12.5726L13.1017 6.66913L16.2921 5.36118L25.6863 11.627V22.232C24.723 22.4233 23.7836 22.7197 22.8848 23.1157V22.6915C22.8779 22.1243 22.6854 21.5749 22.3369 21.1273V13.3061C22.3354 13.0105 22.1861 12.7352 21.9392 12.5726ZM37.9705 37.3176C37.9705 38.4488 34.8155 40.0837 29.8753 40.0837C26.411 40.0837 23.8481 39.2795 22.6109 38.4134C22.7818 38.0732 22.8725 37.6984 22.876 37.3176V36.9287C25.0987 37.823 27.48 38.2559 29.8753 38.2013C32.9154 38.2013 36.0616 37.5562 37.9705 36.3278V37.3176ZM37.9705 33.6677C37.9705 34.7989 34.8155 36.4338 29.8753 36.4338C27.4535 36.5239 25.0475 36.0075 22.876 34.9315V33.2965C25.0987 34.1908 27.48 34.6237 29.8753 34.5691C32.9154 34.5691 36.0616 33.924 37.9705 32.6956V33.6677ZM37.9705 30.0178C37.9705 31.149 34.8155 32.784 29.8753 32.784C27.4535 32.8744 25.0474 32.358 22.876 31.2816V29.6201C25.0987 30.5144 27.48 30.9473 29.8753 30.8927C32.9154 30.8927 36.0616 30.2476 37.9705 29.0192V30.0178ZM29.8753 29.1341C27.4535 29.2245 25.0474 28.7081 22.876 27.6317V25.0953C25.0461 24.0135 27.4521 23.4911 29.8753 23.5753C34.8155 23.5753 37.9705 25.219 37.9705 26.3414C37.9705 27.4638 34.8243 29.1341 29.8753 29.1341Z" fill="#1863A4"/>
</svg>
