<svg width="44" height="44" viewBox="0 0 44 44" fill="none" xmlns="http://www.w3.org/2000/svg">
<path d="M43.2667 14.6667H38.4267C36.6984 14.6685 35.0023 14.1997 33.5204 13.3106C32.0384 12.4214 30.8266 11.1454 30.0149 9.61963L29.1176 7.93722C28.2128 6.23654 26.7282 4.91658 24.9333 4.21685V2.93333C24.9333 2.15536 24.6243 1.40926 24.0742 0.859153C23.5241 0.309047 22.778 0 22 0C21.222 0 20.4759 0.309047 19.9258 0.859153C19.3757 1.40926 19.0667 2.15536 19.0667 2.93333V4.21685C17.2718 4.91659 15.7872 6.23655 14.8823 7.93723L13.9851 9.61963C13.1735 11.1454 11.9616 12.4214 10.4797 13.3106C8.99769 14.1997 7.30156 14.6685 5.57331 14.6667H0.733333C0.538842 14.6667 0.352317 14.7439 0.21479 14.8815C0.0772642 15.019 1.94489e-06 15.2055 0 15.4V18.3333C1.94489e-06 18.5278 0.0772642 18.7144 0.21479 18.8519C0.352317 18.9894 0.538842 19.0667 0.733333 19.0667H5.55299L3.15299 25.6667H2.2C2.00551 25.6667 1.81898 25.7439 1.68146 25.8815C1.54393 26.019 1.46667 26.2055 1.46667 26.4C1.46667 27.9559 2.08476 29.4481 3.18497 30.5484C4.28519 31.6486 5.7774 32.2667 7.33333 32.2667C8.88927 32.2667 10.3815 31.6486 11.4817 30.5484C12.5819 29.4481 13.2 27.9559 13.2 26.4C13.2 26.2055 13.1227 26.019 12.9852 25.8815C12.8477 25.7439 12.6612 25.6667 12.4667 25.6667H11.5137L9.11367 19.0667H10.9024C13.034 19.0669 15.0932 18.2932 16.6973 16.8893L18.6272 15.2006C18.7673 15.0785 18.9141 14.9641 19.0667 14.858V34.2935L17.8801 36.6667H16.1333C16.0195 36.6667 15.9072 36.6932 15.8054 36.7441C15.7035 36.795 15.615 36.8689 15.5467 36.96L13.5667 39.6H10.2667C10.0722 39.6 9.88565 39.6773 9.74812 39.8148C9.6106 39.9523 9.53334 40.1388 9.53333 40.3333V43.2667C9.53334 43.4612 9.6106 43.6477 9.74812 43.7852C9.88565 43.9227 10.0722 44 10.2667 44H33.7333C33.9278 44 34.1144 43.9227 34.2519 43.7852C34.3894 43.6477 34.4667 43.4612 34.4667 43.2667V40.3333C34.4667 40.1388 34.3894 39.9523 34.2519 39.8148C34.1144 39.6773 33.9278 39.6 33.7333 39.6H30.4333L28.4533 36.96C28.385 36.8689 28.2965 36.795 28.1946 36.7441C28.0928 36.6932 27.9805 36.6667 27.8667 36.6667H26.1199L24.9333 34.2935V14.858C25.0859 14.9641 25.2327 15.0785 25.3728 15.2006H25.3728L27.3027 16.8893C28.9068 18.2932 30.966 19.0669 33.0976 19.0667H34.8863L32.4863 25.6667H31.5333C31.3388 25.6667 31.1523 25.7439 31.0148 25.8815C30.8773 26.019 30.8 26.2055 30.8 26.4C30.8 27.9559 31.4181 29.4481 32.5183 30.5484C33.6185 31.6486 35.1107 32.2667 36.6667 32.2667C38.2226 32.2667 39.7148 31.6486 40.815 30.5484C41.9152 29.4481 42.5333 27.9559 42.5333 26.4C42.5333 26.2055 42.4561 26.019 42.3185 25.8815C42.181 25.7439 41.9945 25.6667 41.8 25.6667H40.847L38.447 19.0667H43.2667C43.4612 19.0667 43.6477 18.9894 43.7852 18.8519C43.9227 18.7144 44 18.5278 44 18.3333V15.4C44 15.2055 43.9227 15.019 43.7852 14.8815C43.6477 14.7439 43.4612 14.6667 43.2667 14.6667V14.6667ZM20.5333 2.93333C20.5333 2.54435 20.6879 2.1713 20.9629 1.89624C21.238 1.62119 21.611 1.46667 22 1.46667C22.389 1.46667 22.762 1.62119 23.0371 1.89624C23.3121 2.1713 23.4667 2.54435 23.4667 2.93333V3.80121C22.4971 3.62182 21.5029 3.62182 20.5333 3.80121V2.93333ZM7.33333 30.8C6.29384 30.7987 5.28827 30.43 4.49431 29.759C3.70035 29.088 3.1691 28.1581 2.99443 27.1333H11.6722C11.4976 28.1581 10.9663 29.088 10.1724 29.759C9.3784 30.43 8.37283 30.7987 7.33333 30.8V30.8ZM9.95299 25.6667H4.71367L7.11368 19.0667H7.55299L9.95299 25.6667ZM33 42.5333H11V41.0667H33V42.5333ZM28.6 39.6H15.4L16.5 38.1333H27.5L28.6 39.6ZM23.5441 34.7947L24.4801 36.6667H19.5199L20.4559 34.7947C20.5068 34.6928 20.5333 34.5805 20.5333 34.4667V14.1491C21.49 13.8614 22.51 13.8614 23.4667 14.1491V34.4667C23.4667 34.5805 23.4932 34.6928 23.5441 34.7947V34.7947ZM36.6667 30.8C35.6272 30.7987 34.6216 30.43 33.8276 29.759C33.0337 29.088 32.5024 28.1581 32.3278 27.1333H41.0056C40.8309 28.1581 40.2997 29.088 39.5057 29.759C38.7117 30.43 37.7062 30.7987 36.6667 30.8V30.8ZM39.2863 25.6667H34.047L36.447 19.0667H36.8863L39.2863 25.6667ZM42.5333 17.6H33.0976C31.3212 17.6002 29.6052 16.9555 28.2686 15.7856L26.3386 14.0968H26.3385C25.1375 13.0459 23.5959 12.4667 22 12.4667C20.4041 12.4667 18.8624 13.0459 17.6614 14.0968L15.7314 15.7856C14.3948 16.9555 12.6788 17.6002 10.9024 17.6H1.46667V16.1333H5.57331C7.56745 16.1355 9.52453 15.5946 11.2345 14.5686C12.9445 13.5426 14.3427 12.0704 15.2792 10.3098L16.1764 8.62741C16.7394 7.57194 17.5786 6.6893 18.6043 6.07387C19.6301 5.45843 20.8038 5.13333 22 5.13333C23.1962 5.13333 24.3699 5.45843 25.3956 6.07387C26.4214 6.6893 27.2606 7.57194 27.8235 8.62741L28.7208 10.3098C29.6573 12.0704 31.0556 13.5426 32.7655 14.5686C34.4755 15.5946 36.4326 16.1355 38.4267 16.1333H42.5333V17.6Z" fill="#1863A4"/>
<path d="M22.0001 6.59998C21.5649 6.59998 21.1396 6.729 20.7778 6.97074C20.416 7.21248 20.134 7.55607 19.9675 7.95807C19.801 8.36007 19.7574 8.80242 19.8423 9.22917C19.9272 9.65593 20.1367 10.0479 20.4444 10.3556C20.7521 10.6633 21.1441 10.8728 21.5709 10.9577C21.9976 11.0426 22.44 10.999 22.842 10.8325C23.2439 10.666 23.5875 10.384 23.8293 10.0222C24.071 9.66044 24.2 9.23509 24.2 8.79998C24.1994 8.2167 23.9674 7.65751 23.555 7.24507C23.1425 6.83263 22.5833 6.60064 22.0001 6.59998V6.59998ZM22.0001 9.53331C21.855 9.53331 21.7132 9.4903 21.5926 9.40972C21.472 9.32914 21.378 9.21461 21.3225 9.08061C21.267 8.94661 21.2525 8.79916 21.2808 8.65691C21.3091 8.51466 21.3789 8.38399 21.4815 8.28143C21.5841 8.17887 21.7147 8.10903 21.857 8.08073C21.9992 8.05244 22.1467 8.06696 22.2807 8.12246C22.4147 8.17797 22.5292 8.27196 22.6098 8.39256C22.6904 8.51315 22.7334 8.65494 22.7334 8.79998C22.7332 8.9944 22.6558 9.1808 22.5183 9.31828C22.3809 9.45575 22.1945 9.53309 22.0001 9.53331V9.53331Z" fill="#1863A4"/>
</svg>
