<svg width="45" height="45" viewBox="0 0 45 45" fill="none" xmlns="http://www.w3.org/2000/svg">
<path d="M38.2828 24.7796C37.898 24.4286 37.3833 24.2554 36.8645 24.3022L34.0335 24.5558C32.9356 24.6591 31.8482 24.2717 31.0629 23.4974L29.2341 22.2202C29.1286 22.1479 29.0188 22.0823 28.9053 22.0236L27.4425 21.0522C26.216 20.2369 24.7756 19.803 23.3028 19.8054H18.4475C17.6481 19.8034 16.9 20.1985 16.451 20.8599L16.0206 21.496L12.8307 21.8889C12.2864 21.9562 11.7352 21.9411 11.1953 21.8442L7.30989 21.1482C6.7686 21.0504 6.21174 21.1979 5.78985 21.5508C5.37449 21.8963 5.13431 22.4085 5.1344 22.9487V32.2754C5.13603 32.9252 5.48237 33.5253 6.04412 33.8518C5.77549 34.8035 5.99839 35.8266 6.63871 36.5803L9.61794 39.5148C10.1899 40.0759 10.8834 40.498 11.6445 40.7484L15.8415 42.1266C16.837 42.4596 17.9117 42.4737 18.9156 42.1669L19.8408 43.0635C20.4938 43.6741 21.3545 44.0134 22.2484 44.013C22.5371 44.0128 22.8248 43.9778 23.1052 43.9088L27.0486 42.9378C27.9723 42.7119 28.8388 42.2964 29.5931 41.7175L31.6518 40.1401C32.6515 39.3744 33.1559 38.1259 32.9687 36.8807L37.3624 35.3389C38.2755 34.9864 38.8774 34.1081 38.8767 33.1293V26.1247C38.8757 25.6128 38.6603 25.125 38.2828 24.7796ZM16.2984 40.7325L12.102 39.3543C11.5558 39.175 11.0582 38.8723 10.6478 38.4696L7.66861 35.535C7.42001 35.17 7.33878 34.7163 7.44511 34.2875L7.50692 34.1052H10.2109C10.4465 34.1034 10.6742 34.1904 10.8485 34.349L17.6202 40.9115C17.1724 40.9307 16.7248 40.8701 16.2984 40.7325ZM30.7591 38.9753L30.7524 38.9804L26.5226 32.2095C26.3841 31.9865 26.1371 31.8545 25.8747 31.8634C25.6124 31.8723 25.3749 32.0208 25.2519 32.2527C25.1289 32.4846 25.1393 32.7645 25.279 32.9867L29.5829 39.8764L28.7003 40.5527C28.3226 40.8398 27.9085 41.0756 27.4688 41.2539L24.3012 36.0537C24.0899 35.709 23.6396 35.6001 23.2942 35.8103C22.9488 36.0205 22.8385 36.4705 23.0477 36.8165L26.0112 41.6818L23.9784 42.1824L21.4862 38.7453C21.248 38.4186 20.7903 38.3463 20.463 38.5836C20.1357 38.821 20.0621 39.2785 20.2986 39.6064L22.4146 42.5246C21.8433 42.5775 21.2761 42.3871 20.8522 42.0004L11.86 33.2861C11.4126 32.8685 10.823 32.6368 10.211 32.6382H6.98092C6.77599 32.6425 6.60622 32.4803 6.60123 32.2753V22.9486C6.60132 22.8429 6.64894 22.7428 6.73086 22.676C6.81966 22.602 6.93665 22.5713 7.05038 22.5922L10.9365 23.2881C11.6208 23.4105 12.3196 23.4297 13.0096 23.345L15.0249 23.0967L14.9136 23.2791C14.2753 24.3216 14.545 25.6796 15.5332 26.3991C16.4064 27.0425 17.6016 27.0241 18.4544 26.354L20.0342 25.1094H21.9273C22.1572 25.1089 22.3795 25.192 22.5526 25.3433L26.8908 29.1413C26.9628 29.2042 27.0245 29.278 27.0735 29.3601L31.2662 36.3806C31.7804 37.2489 31.5623 38.3647 30.7591 38.9753ZM37.4096 33.1293C37.4107 33.4953 37.1897 33.8255 36.8508 33.9638L32.4527 35.5066L28.3336 28.6088C28.2057 28.3945 28.045 28.2016 27.8572 28.0371L23.519 24.2391C23.0782 23.854 22.5126 23.6419 21.9273 23.6424H20.5132V23.2795C20.5132 22.8744 20.1848 22.546 19.7797 22.546C19.3746 22.546 19.0462 22.8744 19.0462 23.2795V24.0198L17.5462 25.2018C17.2124 25.4645 16.744 25.4711 16.4029 25.2179C16.0302 24.9473 15.9273 24.436 16.1665 24.0424L17.0559 22.5831L17.6658 21.6821C17.8421 21.4242 18.1349 21.2705 18.4474 21.2723H23.3027C24.4865 21.2701 25.6444 21.6187 26.6301 22.2741L28.1294 23.2698L28.2111 23.3168C28.2772 23.3493 28.3408 23.3866 28.4016 23.4282L30.08 24.5886C31.1704 25.6334 32.6601 26.1544 34.1638 26.017L36.9948 25.7635C37.1035 25.754 37.2113 25.7898 37.2928 25.8623C37.367 25.9293 37.4095 26.0245 37.4096 26.1245V33.1293Z" fill="#1863A4"/>
<path d="M43.5585 0.0565621C43.4697 0.0195131 43.3744 0.000343843 43.2782 0H41.0776C40.6725 0 40.3441 0.32837 40.3441 0.733503C40.3441 1.13864 40.6725 1.46701 41.0776 1.46701H41.5074L34.4899 8.48449C33.6403 7.96538 32.5806 7.93013 31.6983 8.39174L30.2954 6.78746C31.1313 5.58564 30.956 3.95196 29.8842 2.95481C28.8123 1.95767 27.1703 1.90059 26.0318 2.82097C24.8934 3.74135 24.6052 5.35888 25.3557 6.61588L18.3523 13.6193C17.4426 13.065 16.2996 13.065 15.3899 13.6193L12.0541 10.2835C12.3234 9.83614 12.4671 9.3245 12.4698 8.80238C12.4698 7.18193 11.1562 5.86828 9.53572 5.86828C7.91528 5.86828 6.60163 7.18193 6.60163 8.80238C6.60498 9.28015 6.72644 9.74966 6.95518 10.1691L0.237698 16.3307C0.0446304 16.5078 -0.0393533 16.7745 0.0174668 17.0303C0.0742868 17.286 0.263228 17.4921 0.513202 17.5708C0.76309 17.6495 1.03602 17.5889 1.22908 17.4118L7.93832 11.2577C8.86583 11.8726 10.0649 11.8972 11.0169 11.3209L14.3527 14.6566C14.0834 15.104 13.9397 15.6156 13.9369 16.1377C13.9369 17.7582 15.2506 19.0718 16.871 19.0718C18.4915 19.0718 19.8051 17.7582 19.8051 16.1377C19.8024 15.6156 19.6587 15.1039 19.3894 14.6566L26.3928 7.65325C27.2424 8.17237 28.3021 8.20761 29.1845 7.74601L30.5873 9.35038C29.7514 10.5522 29.9267 12.1859 30.9986 13.183C32.0704 14.1802 33.7124 14.2372 34.8509 13.3169C35.9894 12.3965 36.2776 10.779 35.5271 9.52195L42.5446 2.50447V2.93427C42.5446 3.3394 42.8729 3.66777 43.2781 3.66777C43.6832 3.66777 44.0116 3.3394 44.0116 2.93427V0.733675C44.0106 0.437196 43.8321 0.17046 43.5585 0.0565621ZM10.5737 9.83803L10.5723 9.83889L10.5714 9.84027C10.1519 10.2595 9.52111 10.3847 8.9732 10.1575C8.42537 9.93035 8.06837 9.39542 8.06872 8.80238C8.0682 8.13833 8.51374 7.55672 9.15509 7.38437C9.79644 7.21202 10.4735 7.49199 10.8059 8.0669C11.1382 8.6418 11.043 9.36826 10.5737 9.83803ZM18.2264 16.7002C17.9992 17.2481 17.4642 17.6051 16.8711 17.6048C16.278 17.6051 15.7431 17.2481 15.5158 16.7002C15.2886 16.1524 15.4139 15.5215 15.8332 15.102L15.8346 15.1011L15.8355 15.0998C16.1102 14.825 16.4826 14.6707 16.8711 14.6707C17.2596 14.6707 17.6321 14.825 17.9067 15.0998L17.9076 15.1011L17.909 15.102C18.3283 15.5216 18.4535 16.1524 18.2264 16.7002ZM28.8381 6.23172L28.8361 6.23284L28.8351 6.23421C28.2588 6.74714 27.3821 6.72015 26.8385 6.17267L26.8376 6.17129L26.8362 6.17043C26.406 5.74536 26.2798 5.10031 26.5181 4.5444C26.7565 3.98858 27.3107 3.63519 27.9152 3.65376C28.5196 3.67233 29.0512 4.05889 29.255 4.6283C29.4588 5.1977 29.2934 5.83381 28.8381 6.23172ZM34.364 11.5655C34.1368 12.1133 33.6019 12.4704 33.0088 12.4701C32.398 12.4726 31.8502 12.095 31.6352 11.5234C31.4202 10.9517 31.5835 10.3067 32.0445 9.9062L32.0467 9.90491L32.0477 9.90353C32.624 9.39061 33.5007 9.4176 34.0443 9.96508L34.0453 9.96646L34.0466 9.96732C34.466 10.3868 34.5912 11.0176 34.364 11.5655Z" fill="#1863A4"/>
</svg>
