<svg width="38" height="38" viewBox="0 0 38 38" fill="none" xmlns="http://www.w3.org/2000/svg">
<rect width="38" height="38" rx="9" fill="#E3EAF9" fill-opacity="0.85"/>
<path d="M20.6476 32H16.6975C16.0377 32 15.501 31.4343 15.501 30.7388V21.3474H13.1965C12.5367 21.3474 12 20.7815 12 20.0862V16.062C12 15.3666 12.5367 14.8008 13.1965 14.8008H15.501V12.7856C15.501 10.7875 16.0963 9.08754 17.2222 7.86978C18.3532 6.64647 19.9338 6 21.7931 6L24.8056 6.00516C25.4642 6.00635 26 6.57208 26 7.26636V11.0027C26 11.6982 25.4635 12.2639 24.8039 12.2639L22.7756 12.2647C22.157 12.2647 21.9995 12.3955 21.9658 12.4355C21.9103 12.502 21.8443 12.6898 21.8443 13.2086V14.8006H24.6515C24.8628 14.8006 25.0675 14.8556 25.2435 14.9591C25.6231 15.1827 25.859 15.6054 25.859 16.0622L25.8575 20.0864C25.8575 20.7815 25.3208 21.3472 24.661 21.3472H21.8443V30.7388C21.8443 31.4343 21.3074 32 20.6476 32ZM16.9471 30.4758H20.398V20.6651C20.398 20.2007 20.7565 19.823 21.1969 19.823H24.4115L24.4128 16.3251H21.1967C20.7564 16.3251 20.398 15.9474 20.398 15.483V13.2086C20.398 12.6131 20.4554 11.9359 20.8819 11.4268C21.3971 10.8115 22.2092 10.7405 22.7752 10.7405L24.554 10.7397V7.52899L21.7919 7.52423C18.8039 7.52423 16.9471 9.54041 16.9471 12.7856V15.483C16.9471 15.9472 16.5888 16.3251 16.1484 16.3251H13.446V19.823H16.1484C16.5888 19.823 16.9471 20.2007 16.9471 20.6651V30.4758ZM24.8028 7.52939H24.8029H24.8028Z" fill="#1863A4"/>
</svg>
