<svg width="13" height="11" viewBox="0 0 13 11" fill="none" xmlns="http://www.w3.org/2000/svg">
<path d="M5.38378 2.76474C5.11457 2.60386 4.76953 2.79832 4.76953 3.11357V6.90524C4.76953 7.22211 5.11511 7.41386 5.38378 7.25461L8.56282 5.36149C8.82716 5.20386 8.82661 4.82145 8.56336 4.66328L5.38378 2.76474ZM5.58203 6.19078V3.82911L7.56182 5.01157L5.58203 6.19078Z" fill="#A1B6C7"/>
<path d="M10.7813 0.280719C8.26096 -0.0935729 4.74013 -0.0935729 2.21867 0.280719C1.21008 0.430219 0.415458 1.22214 0.242125 2.25022C-0.0807083 4.15851 -0.0807083 5.85988 0.242125 7.76763C0.415458 8.79626 1.21008 9.58763 2.21867 9.73713C3.48183 9.92455 4.99417 10.0183 6.50596 10.0183C8.01504 10.0183 9.52358 9.92509 10.7819 9.73768C11.7894 9.58818 12.5835 8.7968 12.7579 7.76818C13.0807 5.85988 13.0807 4.15797 12.7579 2.24968C12.5845 1.22214 11.7899 0.430219 10.7813 0.280719ZM11.9567 7.63276C11.8414 8.31309 11.3214 8.83634 10.6622 8.93384C8.21492 9.2973 4.79158 9.2973 2.33783 8.9333C1.67808 8.83526 1.15754 8.31255 1.04271 7.63222C0.731792 5.7938 0.731792 4.22459 1.04271 2.38509C1.15808 1.70476 1.67808 1.18259 2.33838 1.08401C3.56363 0.902552 5.03208 0.811552 6.49946 0.811552C7.96792 0.811552 9.43638 0.902552 10.6616 1.08401C11.3214 1.18205 11.8419 1.70476 11.9567 2.38509C12.2677 4.22459 12.2677 5.7938 11.9567 7.63276Z" fill="#A1B6C7"/>
</svg>
