<svg width="12" height="12" viewBox="0 0 12 12" fill="none" xmlns="http://www.w3.org/2000/svg">
<path d="M9.1875 12H2.8125C1.26169 12 0 10.7383 0 9.1875V2.8125C0 1.26169 1.26169 0 2.8125 0H9.1875C10.7383 0 12 1.26169 12 2.8125V9.1875C12 10.7383 10.7383 12 9.1875 12ZM2.8125 0.9375C1.77863 0.9375 0.9375 1.77863 0.9375 2.8125V9.1875C0.9375 10.2214 1.77863 11.0625 2.8125 11.0625H9.1875C10.2214 11.0625 11.0625 10.2214 11.0625 9.1875V2.8125C11.0625 1.77863 10.2214 0.9375 9.1875 0.9375H2.8125ZM9.30469 2.10938C8.98109 2.10938 8.71875 2.37171 8.71875 2.69531C8.71875 3.01891 8.98109 3.28125 9.30469 3.28125C9.62829 3.28125 9.89062 3.01891 9.89062 2.69531C9.89062 2.37171 9.62829 2.10938 9.30469 2.10938ZM6 9.04688C4.31993 9.04688 2.95312 7.68007 2.95312 6C3.12047 1.9579 8.88014 1.95907 9.04688 6.00002C9.04688 7.68007 7.68007 9.04688 6 9.04688ZM6 3.89063C4.83689 3.89063 3.89063 4.83689 3.89063 6C4.0065 8.79837 7.99392 8.79755 8.10938 5.99998C8.10938 4.83689 7.16311 3.89063 6 3.89063Z" fill="#A1B6C7"/>
</svg>
