<svg width="8" height="14" viewBox="0 0 8 14" fill="none" xmlns="http://www.w3.org/2000/svg">
<path d="M4.94147 14H2.6843C2.30728 14 2.00059 13.6954 2.00059 13.3209V8.26401H0.683711C0.306691 8.26401 0 7.95927 0 7.5849V5.41801C0 5.04353 0.306691 4.73891 0.683711 4.73891H2.00059V3.65381C2.00059 2.5779 2.34073 1.66252 2.98411 1.00681C3.6304 0.348099 4.53359 0 5.59604 0L7.31747 0.00277709C7.69385 0.00341797 8 0.308044 8 0.681885V2.69379C8 3.06827 7.69342 3.37289 7.3165 3.37289L6.15749 3.37332C5.80402 3.37332 5.71401 3.44371 5.69476 3.46529C5.66304 3.50107 5.62529 3.60222 5.62529 3.88153V4.7388H7.2294C7.35016 4.7388 7.46716 4.76839 7.56771 4.82414C7.78461 4.94452 7.91946 5.17213 7.91946 5.41812L7.9186 7.58501C7.9186 7.95927 7.6119 8.2639 7.23488 8.2639H5.62529V13.3209C5.62529 13.6954 5.31849 14 4.94147 14ZM2.82689 13.1793H4.79888V7.89658C4.79888 7.64653 5.00374 7.44316 5.25537 7.44316H7.09229L7.09305 5.55965H5.25526C5.00363 5.55965 4.79888 5.35628 4.79888 5.10623V3.88153C4.79888 3.56088 4.83168 3.19623 5.07536 2.92215C5.36979 2.59082 5.8338 2.55258 6.15727 2.55258L7.1737 2.55215V0.823303L5.5954 0.82074C3.88795 0.82074 2.82689 1.90637 2.82689 3.65381V5.10623C2.82689 5.35617 2.62215 5.55965 2.37051 5.55965H0.826303V7.44316H2.37051C2.62215 7.44316 2.82689 7.64653 2.82689 7.89658V13.1793ZM7.31586 0.823517H7.31597H7.31586Z" fill="#A1B6C7"/>
</svg>
