<svg width="13" height="9" viewBox="0 0 13 9" fill="none" xmlns="http://www.w3.org/2000/svg">
<path d="M6.57847 9C8.45912 9 7.78854 7.6812 7.9337 7.302C7.93154 7.0188 7.92937 6.7464 7.93804 6.5808C8.0572 6.618 8.33833 6.7758 8.91899 7.401C9.81543 8.403 10.0446 9 10.7688 9H12.1018C12.5243 9 12.7442 8.8062 12.8542 8.6436C12.9603 8.4864 13.0643 8.2104 12.9506 7.7808C12.6532 6.7464 10.9188 4.9602 10.811 4.7718C10.8273 4.737 10.8533 4.6908 10.8668 4.6668H10.8657C11.208 4.1658 12.5145 1.9974 12.7068 1.1298C12.7074 1.1286 12.7079 1.1268 12.7079 1.125C12.8119 0.729 12.7166 0.4722 12.618 0.327C12.4696 0.1098 12.2334 0 11.9144 0H10.5813C10.135 0 9.79648 0.249 9.62531 0.7032C9.33877 1.5102 8.53386 3.1698 7.93045 3.7572C7.91204 2.925 7.9245 2.2896 7.93425 1.8174C7.95375 0.8964 8.01658 0 7.15371 0H5.05857C4.51799 0 4.00071 0.654 4.56078 1.4304C5.05044 2.1108 4.73682 2.49 4.84245 4.3776C4.43078 3.8886 3.69846 2.568 3.18063 0.8802C3.03547 0.4236 2.81555 0.000599957 2.19643 0.000599957H0.863407C0.32283 0.000599957 0 0.327 0 0.8736C0 2.1012 2.45318 9 6.57847 9ZM2.19643 0.9006C2.31397 0.9006 2.32589 0.9006 2.4131 1.1748C2.94338 2.9046 4.13287 5.4642 5.0017 5.4642C5.6544 5.4642 5.6544 4.7232 5.6544 4.4442L5.65385 2.223C5.6181 1.488 5.37652 1.122 5.21782 0.9L7.11796 0.9024C7.11905 0.9126 7.10713 3.3594 7.12338 3.9522C7.12338 4.794 7.72679 5.2764 8.66874 4.2204C9.66269 2.9778 10.3501 1.1202 10.3777 1.0446C10.4183 0.9366 10.4535 0.9 10.5813 0.9H11.9144H11.9198C11.9192 0.9018 11.9192 0.9036 11.9187 0.9054C11.7968 1.5354 10.5938 3.543 10.1913 4.1664C10.1848 4.176 10.1789 4.1862 10.1729 4.1964C9.99581 4.5168 9.85173 4.8708 10.1973 5.3688C10.2287 5.4108 10.3111 5.5092 10.4302 5.646C10.8007 6.0696 12.0715 7.518 12.1841 8.094C12.1094 8.1072 12.0281 8.0976 10.7688 8.1006C10.5006 8.1006 10.291 7.6566 9.49098 6.7626C8.77165 5.9874 8.30474 5.6706 7.87954 5.6706C7.05405 5.6706 7.11417 6.4128 7.12176 7.3104C7.12446 8.2836 7.11905 7.9758 7.12501 8.037C7.0768 8.058 6.93867 8.1 6.57847 8.1C3.14163 8.1 0.90349 2.0574 0.817366 0.9024C0.847157 0.8994 1.25719 0.9012 2.19643 0.9006Z" fill="#A1B6C7"/>
</svg>
