<svg width="38" height="38" viewBox="0 0 38 38" fill="none" xmlns="http://www.w3.org/2000/svg">
<rect width="38" height="38" rx="9" fill="#E3EAF9" fill-opacity="0.85"/>
<path d="M26.1406 31H12.8594C9.62852 31 7 28.3715 7 25.1406V11.8594C7 8.62852 9.62852 6 12.8594 6H26.1406C29.3715 6 32 8.62852 32 11.8594V25.1406C32 28.3715 29.3715 31 26.1406 31ZM12.8594 7.95312C10.7055 7.95312 8.95312 9.70547 8.95312 11.8594V25.1406C8.95312 27.2945 10.7055 29.0469 12.8594 29.0469H26.1406C28.2945 29.0469 30.0469 27.2945 30.0469 25.1406V11.8594C30.0469 9.70547 28.2945 7.95312 26.1406 7.95312H12.8594ZM26.3848 10.3945C25.7106 10.3945 25.1641 10.9411 25.1641 11.6152C25.1641 12.2894 25.7106 12.8359 26.3848 12.8359C27.0589 12.8359 27.6055 12.2894 27.6055 11.6152C27.6055 10.9411 27.0589 10.3945 26.3848 10.3945ZM19.5 24.8477C15.9999 24.8477 13.1523 22.0001 13.1523 18.5C13.501 10.079 25.5003 10.0814 25.8477 18.5C25.8477 22.0001 23.0001 24.8477 19.5 24.8477ZM19.5 14.1055C17.0769 14.1055 15.1055 16.0769 15.1055 18.5C15.3469 24.3299 23.654 24.3282 23.8945 18.5C23.8945 16.0769 21.9231 14.1055 19.5 14.1055Z" fill="#1863A4"/>
</svg>
