<svg width="167" height="26" viewBox="0 0 167 26" fill="none" xmlns="http://www.w3.org/2000/svg">
<g filter="url(#filter0_d_0_452)">
<path d="M35.9999 1H31.1441H19.772V6.61753H31.4411V12.2351H25.3528V9.6816H19.772V12.7457V18.3633V24.4914H25.3528V17.8525H31.1441H36.0072H36.5145V1H35.9999Z" fill="#1863A4"/>
<path d="M1.51479 1H6.37058H17.7427V6.61753H6.07358V12.2351H12.1618V9.6816H17.7427V12.7457V18.3633V20.9167H12.1618V17.8525H6.37058H1.50746H1.0001V1H1.51479Z" fill="#1863A4"/>
<path d="M41.5884 11.7272C41.5884 7.92307 44.3332 5.5957 47.6972 5.5957C50.3443 5.5957 51.876 7.14213 52.5749 8.68855L49.7468 10.235C49.5703 9.80864 49.2847 9.44419 48.9227 9.1836C48.5608 8.923 48.1372 8.77686 47.7009 8.76201C47.3377 8.75471 46.9771 8.82705 46.6412 8.97454C46.3053 9.12204 46.0014 9.34156 45.7482 9.61952C45.4949 9.89747 45.2978 10.2279 45.1691 10.5905C45.0403 10.953 44.9826 11.34 44.9995 11.7272C44.9821 12.1146 45.0393 12.5016 45.1676 12.8643C45.296 13.2271 45.4927 13.5578 45.7455 13.8362C45.9984 14.1145 46.3021 14.3344 46.6378 14.4824C46.9735 14.6303 47.3341 14.7032 47.6972 14.6964C48.3097 14.6957 48.9095 14.5108 49.4281 14.1629V13.7376H47.3641V10.5984H52.774V15.4503C52.1432 16.2197 51.3628 16.8331 50.4873 17.2477C49.6118 17.6624 48.6621 17.8683 47.7044 17.8511C44.3332 17.8473 41.5884 15.5005 41.5884 11.7272Z" fill="#1863A4"/>
<path d="M55.1392 12.7687V5.78271H58.5503V12.6411C58.5503 13.7777 59.2491 14.6863 60.6324 14.6863C62.0157 14.6863 62.6965 13.7816 62.6965 12.6411V5.78271H66.1075V12.7416C66.1075 15.6914 64.3767 17.841 60.6324 17.841C56.8882 17.841 55.1392 15.6992 55.1392 12.7687Z" fill="#1863A4"/>
<path d="M75.312 17.636L74.9137 16.2482H70.9304L70.5321 17.636H66.7046L70.8001 5.78271H75.0296L79.125 17.636H75.312ZM72.9148 9.30083L71.8285 13.1205H74.0265L72.9148 9.30083Z" fill="#1863A4"/>
<path d="M86.6965 17.636L85.1648 13.9053H83.9517V17.636H80.5913V5.78271H86.5155C89.1118 5.78271 90.4987 7.63069 90.4987 9.85367C90.5275 10.5943 90.3539 11.3278 89.9989 11.9648C89.644 12.6019 89.1231 13.1149 88.4998 13.4414L90.5422 17.636H86.6965ZM87.0949 9.83435C87.0949 9.19258 86.5626 8.91036 86.0085 8.91036H83.9517V10.7777H85.9976C86.5589 10.7777 87.0984 10.4916 87.0984 9.83435H87.0949Z" fill="#1863A4"/>
<path d="M100.584 17.636L100.186 16.2482H96.2026L95.8043 17.636H91.9912L96.0867 5.78271H100.313L104.408 17.636H100.584ZM98.187 9.30083L97.1006 13.1205H99.2986L98.187 9.30083Z" fill="#1863A4"/>
<path d="M113.319 17.636L109.224 11.6282V17.636H105.86V5.78271H109.322L113.182 11.3962V5.78271H116.542V17.636H113.319Z" fill="#1863A4"/>
<path d="M121.593 17.636V8.91036H118.613V5.78271H127.915V8.91036H124.943V17.636H121.593Z" fill="#1863A4"/>
<path d="M133.359 17.636V5.78271H139.283C141.879 5.78271 143.266 7.63069 143.266 9.85367C143.266 12.0767 141.869 13.9053 139.283 13.9053H136.719V17.636H133.359ZM139.877 9.85367C139.877 9.21191 139.428 8.91036 138.863 8.91036H136.734V10.7777H138.863C139.428 10.7777 139.87 10.4761 139.87 9.85367H139.877Z" fill="#1863A4"/>
<path d="M151.787 17.636L151.377 16.2482H147.394L146.996 17.636H143.179L147.275 5.78271H151.501L155.596 17.636H151.787ZM149.389 9.30083L148.303 13.1205H150.501L149.389 9.30083Z" fill="#1863A4"/>
<path d="M158.508 17.636V12.9272L154.347 5.78271H158.124L160.192 9.79568L162.223 5.79818H166L161.879 12.9272V17.636H158.508Z" fill="#1863A4"/>
</g>
<defs>
<filter id="filter0_d_0_452" x="0.08994" y="0.54497" width="166.82" height="25.3116" filterUnits="userSpaceOnUse" color-interpolation-filters="sRGB">
<feFlood flood-opacity="0" result="BackgroundImageFix"/>
<feColorMatrix in="SourceAlpha" type="matrix" values="0 0 0 0 0 0 0 0 0 0 0 0 0 0 0 0 0 0 127 0" result="hardAlpha"/>
<feOffset dy="0.45503"/>
<feGaussianBlur stdDeviation="0.45503"/>
<feColorMatrix type="matrix" values="0 0 0 0 0.207843 0 0 0 0 0.25098 0 0 0 0 0.321569 0 0 0 0.2 0"/>
<feBlend mode="normal" in2="BackgroundImageFix" result="effect1_dropShadow_0_452"/>
<feBlend mode="normal" in="SourceGraphic" in2="effect1_dropShadow_0_452" result="shape"/>
</filter>
</defs>
</svg>
