<svg width="14" height="11" viewBox="0 0 14 11" fill="none" xmlns="http://www.w3.org/2000/svg">
<path d="M12.3594 0H1.64062C0.735984 0 0 0.735984 0 1.64062V8.64062C0 9.54527 0.735984 10.2812 1.64062 10.2812H12.3594C13.264 10.2812 14 9.54527 14 8.64062V1.64062C14 0.735984 13.264 0 12.3594 0ZM12.9062 8.64062C12.9062 8.94217 12.6609 9.1875 12.3594 9.1875H1.64062C1.33908 9.1875 1.09375 8.94217 1.09375 8.64062V1.64062C1.09375 1.33908 1.33908 1.09375 1.64062 1.09375H12.3594C12.6609 1.09375 12.9062 1.33908 12.9062 1.64062V8.64062Z" fill="#6485A2"/>
<path d="M12.8133 0.681885L6.99989 5.00594L1.1865 0.681885L0.533691 1.55948L6.99989 6.36908L13.4661 1.55948L12.8133 0.681885Z" fill="#6485A2"/>
</svg>
