<svg width="14" height="14" viewBox="0 0 14 14" fill="none" xmlns="http://www.w3.org/2000/svg">
<path d="M12.5676 9.04877L11.2334 7.95567C10.3642 7.24355 9.01488 7.31094 8.2219 8.10389L8.16893 8.15685C8.03597 8.28982 7.81937 8.28877 7.68828 8.15765L5.11042 5.57979C4.98028 5.44965 4.97771 5.24033 5.10311 5.10743C5.1054 5.10501 5.10772 5.10263 5.11007 5.10025L5.10299 5.10733C5.10534 5.10498 5.10769 5.1026 5.11004 5.10025C5.89863 4.30409 5.97409 2.94855 5.2833 2.07519L4.20116 0.707099C3.50559 -0.1723 2.29672 -0.240229 1.50383 0.552653L1.30507 0.751421C-0.10325 2.15974 -0.435113 4.69804 0.621258 6.3857C0.621258 6.3857 1.24311 7.82785 3.34168 9.92642C5.44025 12.025 6.8824 12.6468 6.8824 12.6468C8.58582 13.6775 11.1075 13.3722 12.5155 11.9642L12.7048 11.7749C13.4983 10.9814 13.4363 9.76041 12.5676 9.04877ZM11.7462 10.8163L11.5569 11.0056C10.5903 11.9723 8.75393 12.1948 7.58413 11.487L7.50454 11.4388L7.41914 11.402C7.31429 11.3568 7.05147 11.2143 6.65412 10.9478C5.94842 10.4744 5.15595 9.8236 4.30022 8.96788C3.4445 8.11215 2.79364 7.31968 2.32032 6.61398C2.05382 6.21664 1.91128 5.95381 1.8661 5.84896L1.82518 5.75406L1.77034 5.66646C1.05911 4.53022 1.28842 2.68525 2.26364 1.71003L2.46241 1.51126C2.68281 1.29085 2.94634 1.30585 3.13799 1.54815L4.22013 2.91624C4.48695 3.25357 4.45241 3.84085 4.14447 4.14882C3.48939 4.81156 3.49263 5.87921 4.15188 6.53843L6.72974 9.11629C7.39057 9.77712 8.46553 9.7775 9.12757 9.11549L9.18054 9.06253C9.4811 8.76196 10.0445 8.73413 10.3744 9.00438L11.7086 10.0975C11.9577 10.3015 11.9723 10.5903 11.7462 10.8163Z" fill="#6485A2"/>
</svg>
