<svg width="38" height="38" viewBox="0 0 38 38" fill="none" xmlns="http://www.w3.org/2000/svg">
<rect width="38" height="38" rx="9" fill="#E3EAF9" fill-opacity="0.85"/>
<path d="M19.169 28C23.2196 28 21.7753 25.5089 22.088 24.7927C22.0833 24.2577 22.0786 23.7432 22.0973 23.4304C22.354 23.5007 22.9595 23.7987 24.2101 24.9797C26.1409 26.8723 26.6344 28 28.1942 28H31.0654C31.9754 28 32.449 27.6339 32.6859 27.3268C32.9145 27.0299 33.1385 26.5085 32.8935 25.6971C32.253 23.7432 28.5174 20.3693 28.2852 20.0134C28.3202 19.9477 28.3762 19.8604 28.4054 19.8151H28.4031C29.1404 18.8687 31.9544 14.7729 32.3685 13.1341C32.3697 13.1318 32.3709 13.1284 32.3709 13.125C32.5949 12.377 32.3895 11.8919 32.1772 11.6177C31.8575 11.2074 31.3489 11 30.6617 11H27.7906C26.8293 11 26.1001 11.4703 25.7314 12.3283C25.1143 13.8526 23.3806 16.9874 22.081 18.0969C22.0413 16.525 22.0681 15.3248 22.0891 14.4329C22.1311 12.6932 22.2665 11 20.408 11H15.8954C14.7311 11 13.6169 12.2353 14.8232 13.7019C15.8779 14.9871 15.2024 15.7033 15.4299 19.2688C14.5432 18.3451 12.9659 15.8507 11.8506 12.6626C11.5379 11.8001 11.0643 11.0011 9.73078 11.0011H6.85965C5.69533 11.0011 5 11.6177 5 12.6501C5 14.9689 10.2838 28 19.169 28V28ZM9.73078 12.7011C9.98395 12.7011 10.0096 12.7011 10.1974 13.2191C11.3396 16.4865 13.9016 21.3213 15.7729 21.3213C17.1787 21.3213 17.1787 19.9216 17.1787 19.3946L17.1775 15.199C17.1005 13.8107 16.5802 13.1193 16.2384 12.7L20.331 12.7045C20.3333 12.7238 20.3077 17.3455 20.3427 18.4653C20.3427 20.0553 21.6423 20.9665 23.6711 18.9719C25.8119 16.6247 27.2924 13.1159 27.3519 12.9731C27.4394 12.7691 27.5153 12.7 27.7906 12.7H30.6617H30.6734C30.6722 12.7034 30.6722 12.7068 30.6711 12.7102C30.4086 13.9002 27.8174 17.6923 26.9506 18.8699C26.9366 18.888 26.9238 18.9073 26.9109 18.9265C26.5294 19.5317 26.2191 20.2004 26.9634 21.1411H26.9646C27.0323 21.2204 27.2084 21.4063 27.4651 21.6647C28.2631 22.4648 31 25.2007 31.2427 26.2887C31.0817 26.3136 30.9067 26.2955 28.1942 26.3011C27.6168 26.3011 27.1653 25.4625 25.4421 23.7738C23.8928 22.3095 22.8871 21.7111 21.9713 21.7111C20.1933 21.7111 20.3228 23.1131 20.3392 24.8085C20.345 26.6468 20.3333 26.0654 20.3462 26.181C20.2423 26.2207 19.9448 26.3 19.169 26.3C11.7666 26.3 6.94598 14.8862 6.76048 12.7045C6.82465 12.6989 7.7078 12.7023 9.73078 12.7011V12.7011Z" fill="#1863A4"/>
</svg>
