<svg width="38" height="38" viewBox="0 0 38 38" fill="none" xmlns="http://www.w3.org/2000/svg">
<rect width="38" height="38" rx="9" fill="#E3EAF9" fill-opacity="0.85"/>
<path d="M16.5497 13.9306C15.9722 13.5854 15.2319 14.0026 15.2319 14.6789V22.8135C15.2319 23.4933 15.9733 23.9047 16.5497 23.563L23.3699 19.5016C23.937 19.1634 23.9359 18.343 23.3711 18.0036L16.5497 13.9306ZM16.975 21.2807V16.214L21.2224 18.7509L16.975 21.2807Z" fill="#1863A4"/>
<path d="M28.1299 8.60225C22.7228 7.79925 15.1693 7.79925 9.75986 8.60225C7.59608 8.92298 5.89131 10.6219 5.51945 12.8275C4.82685 16.9215 4.82685 20.5716 5.51945 24.6644C5.89131 26.8712 7.59608 28.569 9.75986 28.8897C12.4698 29.2918 15.7143 29.4929 18.9577 29.4929C22.1952 29.4929 25.4316 29.293 28.1311 28.8909C30.2926 28.5702 31.9962 26.8724 32.3703 24.6656C33.0629 20.5716 33.0629 16.9204 32.3703 12.8264C31.9985 10.6219 30.2937 8.92298 28.1299 8.60225ZM30.6516 24.3751C30.4041 25.8346 29.2885 26.9572 27.8743 27.1664C22.624 27.9461 15.2797 27.9461 10.0155 27.1652C8.60011 26.9549 7.48335 25.8335 7.23699 24.3739C6.56996 20.4298 6.56996 17.0633 7.23699 13.1169C7.48452 11.6573 8.60011 10.5371 10.0167 10.3256C12.6453 9.93631 15.7957 9.74108 18.9437 9.74108C22.0941 9.74108 25.2445 9.93631 27.8731 10.3256C29.2885 10.5359 30.4053 11.6573 30.6516 13.1169C31.3187 17.0633 31.3187 20.4298 30.6516 24.3751Z" fill="#1863A4"/>
</svg>
