<svg width="167" height="26" viewBox="0 0 167 26" fill="none" xmlns="http://www.w3.org/2000/svg">
<g filter="url(#filter0_d_0_524)">
<path d="M35.9999 1H31.1441H19.772V6.61753H31.4411V12.2351H25.3528V9.6816H19.772V12.7457V18.3633V24.4914H25.3528V17.8525H31.1441H36.0072H36.5145V1H35.9999Z" fill="white"/>
<path d="M1.51479 1H6.37058H17.7427V6.61753H6.07358V12.2351H12.1618V9.6816H17.7427V12.7457V18.3633V20.9167H12.1618V17.8525H6.37058H1.50746H1.0001V1H1.51479Z" fill="white"/>
<path d="M41.5881 11.7272C41.5881 7.92307 44.3329 5.5957 47.697 5.5957C50.344 5.5957 51.8758 7.14213 52.5746 8.68855L49.7465 10.235C49.5701 9.80864 49.2844 9.44419 48.9224 9.1836C48.5605 8.923 48.1369 8.77686 47.7006 8.76201C47.3375 8.75471 46.9768 8.82705 46.6409 8.97454C46.3051 9.12204 46.0011 9.34156 45.7479 9.61952C45.4947 9.89747 45.2976 10.2279 45.1688 10.5905C45.04 10.953 44.9823 11.34 44.9992 11.7272C44.9818 12.1146 45.0391 12.5016 45.1674 12.8643C45.2957 13.2271 45.4924 13.5578 45.7453 13.8362C45.9982 14.1145 46.3019 14.3344 46.6376 14.4824C46.9733 14.6303 47.3339 14.7032 47.697 14.6964C48.3094 14.6957 48.9093 14.5108 49.4278 14.1629V13.7376H47.3638V10.5984H52.7738V15.4503C52.143 16.2197 51.3626 16.8331 50.487 17.2477C49.6115 17.6624 48.6619 17.8683 47.7042 17.8511C44.3329 17.8473 41.5881 15.5005 41.5881 11.7272Z" fill="white"/>
<path d="M55.1392 12.7687V5.78271H58.5503V12.6411C58.5503 13.7777 59.2491 14.6863 60.6324 14.6863C62.0157 14.6863 62.6965 13.7816 62.6965 12.6411V5.78271H66.1075V12.7416C66.1075 15.6914 64.3767 17.841 60.6324 17.841C56.8882 17.841 55.1392 15.6992 55.1392 12.7687Z" fill="white"/>
<path d="M75.312 17.636L74.9137 16.2482H70.9304L70.5321 17.636H66.7046L70.8001 5.78271H75.0296L79.125 17.636H75.312ZM72.9148 9.30083L71.8285 13.1205H74.0265L72.9148 9.30083Z" fill="white"/>
<path d="M86.6965 17.636L85.1648 13.9053H83.9517V17.636H80.5913V5.78271H86.5155C89.1118 5.78271 90.4987 7.63069 90.4987 9.85368C90.5275 10.5943 90.3539 11.3278 89.9989 11.9648C89.644 12.6019 89.1231 13.1149 88.4998 13.4414L90.5422 17.636H86.6965ZM87.0949 9.83435C87.0949 9.19258 86.5626 8.91036 86.0085 8.91036H83.9517V10.7777H85.9976C86.5589 10.7777 87.0984 10.4916 87.0984 9.83435H87.0949Z" fill="white"/>
<path d="M100.584 17.636L100.186 16.2482H96.2028L95.8045 17.636H91.9915L96.0869 5.78271H100.313L104.408 17.636H100.584ZM98.1872 9.30083L97.1008 13.1205H99.2989L98.1872 9.30083Z" fill="white"/>
<path d="M113.319 17.636L109.224 11.6282V17.636H105.86V5.78271H109.322L113.182 11.3962V5.78271H116.542V17.636H113.319Z" fill="white"/>
<path d="M121.593 17.636V8.91036H118.613V5.78271H127.915V8.91036H124.943V17.636H121.593Z" fill="white"/>
<path d="M133.359 17.636V5.78271H139.283C141.879 5.78271 143.266 7.63069 143.266 9.85368C143.266 12.0767 141.868 13.9053 139.283 13.9053H136.719V17.636H133.359ZM139.877 9.85368C139.877 9.21191 139.428 8.91036 138.863 8.91036H136.734V10.7777H138.863C139.428 10.7777 139.869 10.4761 139.869 9.85368H139.877Z" fill="white"/>
<path d="M151.787 17.636L151.377 16.2482H147.394L146.996 17.636H143.179L147.275 5.78271H151.501L155.596 17.636H151.787ZM149.389 9.30083L148.303 13.1205H150.501L149.389 9.30083Z" fill="white"/>
<path d="M158.508 17.636V12.9272L154.347 5.78271H158.124L160.192 9.79568L162.223 5.79818H166L161.879 12.9272V17.636H158.508Z" fill="white"/>
</g>
<defs>
<filter id="filter0_d_0_524" x="0.08994" y="0.54497" width="166.82" height="25.3116" filterUnits="userSpaceOnUse" color-interpolation-filters="sRGB">
<feFlood flood-opacity="0" result="BackgroundImageFix"/>
<feColorMatrix in="SourceAlpha" type="matrix" values="0 0 0 0 0 0 0 0 0 0 0 0 0 0 0 0 0 0 127 0" result="hardAlpha"/>
<feOffset dy="0.45503"/>
<feGaussianBlur stdDeviation="0.45503"/>
<feColorMatrix type="matrix" values="0 0 0 0 0.207843 0 0 0 0 0.25098 0 0 0 0 0.321569 0 0 0 0.2 0"/>
<feBlend mode="normal" in2="BackgroundImageFix" result="effect1_dropShadow_0_524"/>
<feBlend mode="normal" in="SourceGraphic" in2="effect1_dropShadow_0_524" result="shape"/>
</filter>
</defs>
</svg>
